<svg xmlns="http://www.w3.org/2000/svg" width="21.4" height="16.13" viewBox="0 0 21.4 16.13"><title>cart-add</title><path d="M16.87,0L13.94,11.16a0.93,0.93,0,0,1-.9.69H4.69a1,1,0,0,1-.93-0.64L1.35,4.85H0L2.76,12.2a1,1,0,0,0,.94.65l10.25-.07a0.93,0.93,0,0,0,.89-0.68L17.72,1.63a1.06,1.06,0,0,1,1-.78h2.14L21.4,0" fill="#fff"/><rect x="5" y="5" width="8" height="2" fill="#fff"/><rect x="8" y="2" width="2" height="8" fill="#fff"/><circle cx="5.86" cy="14.54" r="1.59" fill="#fff"/><circle cx="12.22" cy="14.54" r="1.59" fill="#fff"/></svg>